<svg width="256" height="97" viewBox="0 0 256 97" fill="none" xmlns="http://www.w3.org/2000/svg">
<rect width="86.4737" height="25.3413" transform="matrix(-0.00151529 0.999999 -0.999949 -0.0101376 205.702 1.60938)" fill="#EEEEEE"/>
<rect width="86.4737" height="29.6456" transform="matrix(-0.00151529 0.999999 -0.999949 -0.0101376 76.7751 0.300293)" fill="#EEEEEE"/>
<rect x="180.148" y="67.7446" width="103.601" height="50.1019" transform="rotate(-179.644 180.148 67.7446)" fill="#EEEEEE"/>
<circle cx="110.441" cy="38.2817" r="1.95211" fill="#C4C4C4" stroke="#C4C4C4" stroke-width="3"/>
<circle cx="139.148" cy="38.2817" r="1.95211" fill="#C4C4C4" stroke="#C4C4C4" stroke-width="3"/>
<rect x="116.436" y="48.6382" width="16.7155" height="3.6338" fill="#C4C4C4"/>
<path d="M237.891 81.0127L236.699 80.3381C235.473 79.6446 234.86 79.2978 234.831 78.7509C234.801 78.2039 235.373 77.7934 236.518 76.9723L241.8 73.1824C242.524 72.6632 242.885 72.4036 243.035 72.5378C243.184 72.6721 242.965 73.0597 242.527 73.8349L240.345 77.6905C240.229 77.8956 240.171 77.9982 240.199 78.098C240.227 78.1977 240.329 78.2558 240.534 78.3718L241.727 79.0465C242.953 79.74 243.566 80.0868 243.595 80.6337C243.624 81.1807 243.052 81.5912 241.908 82.4122L236.626 86.2022C235.902 86.7214 235.54 86.981 235.391 86.8468C235.241 86.7125 235.46 86.3249 235.899 85.5497L238.08 81.6941C238.196 81.489 238.254 81.3864 238.227 81.2866C238.199 81.1868 238.096 81.1288 237.891 81.0127Z" fill="#D6CDFF"/>
<path d="M16.0319 43.67L14.8393 42.9953C13.6135 42.3018 13.0006 41.955 12.9711 41.4081C12.9417 40.8611 13.5139 40.4506 14.6582 39.6296L19.9406 35.8396C20.6642 35.3204 21.0261 35.0608 21.1756 35.195C21.3251 35.3293 21.1058 35.7169 20.6672 36.4921L18.4859 40.3477C18.3698 40.5528 18.3118 40.6554 18.3395 40.7552C18.3672 40.855 18.4697 40.913 18.6749 41.0291L19.8674 41.7037C21.0933 42.3973 21.7062 42.744 21.7356 43.291C21.765 43.8379 21.1929 44.2484 20.0485 45.0695L14.7662 48.8594C14.0425 49.3786 13.6807 49.6382 13.5312 49.504C13.3817 49.3698 13.601 48.9822 14.0395 48.207L16.2208 44.3514C16.3369 44.1462 16.3949 44.0436 16.3672 43.9439C16.3396 43.8441 16.237 43.786 16.0319 43.67Z" fill="#D6CDFF"/>
<circle cx="24.8918" cy="4.36197" r="2.36197" fill="#A38EFF" fill-opacity="0.44"/>
<circle cx="221.362" cy="70.1335" r="2.36197" fill="#A38EFF" fill-opacity="0.44"/>
<circle cx="250.796" cy="44.3337" r="2.36197" fill="#A38EFF" fill-opacity="0.44"/>
<circle cx="2.36197" cy="23.2575" r="2.36197" fill="#A38EFF" fill-opacity="0.44"/>
</svg>
