<svg width="253" height="99" viewBox="0 0 253 99" fill="none" xmlns="http://www.w3.org/2000/svg">
<path d="M234.375 79.0126L233.183 78.338C231.957 77.6444 231.344 77.2977 231.315 76.7507C231.285 76.2038 231.858 75.7933 233.002 74.9722L238.284 71.1823C239.008 70.6631 239.37 70.4035 239.519 70.5377C239.669 70.6719 239.449 71.0595 239.011 71.8347L236.83 75.6903C236.713 75.8955 236.655 75.9981 236.683 76.0978C236.711 76.1976 236.813 76.2557 237.019 76.3717L238.211 77.0464C239.437 77.7399 240.05 78.0867 240.079 78.6336C240.109 79.1805 239.536 79.5911 238.392 80.4121L233.11 84.2021C232.386 84.7213 232.024 84.9809 231.875 84.8467C231.725 84.7124 231.945 84.3248 232.383 83.5496L234.564 79.694C234.681 79.4889 234.739 79.3863 234.711 79.2865C234.683 79.1867 234.581 79.1287 234.375 79.0126Z" fill="#D6CDFF"/>
<path d="M16.0317 41.6694L14.8392 40.9947C13.6134 40.3012 13.0004 39.9544 12.971 39.4075C12.9416 38.8605 13.5138 38.45 14.6581 37.629L19.9404 33.839C20.6641 33.3198 21.0259 33.0602 21.1754 33.1944C21.325 33.3287 21.1057 33.7163 20.6671 34.4915L18.4858 38.3471C18.3697 38.5522 18.3117 38.6548 18.3394 38.7546C18.367 38.8544 18.4696 38.9124 18.6748 39.0285L19.8673 39.7031C21.0931 40.3967 21.7061 40.7434 21.7355 41.2903C21.7649 41.8373 21.1927 42.2478 20.0484 43.0689L14.7661 46.8588C14.0424 47.378 13.6806 47.6376 13.5311 47.5034C13.3815 47.3692 13.6008 46.9816 14.0394 46.2064L16.2207 42.3507C16.3368 42.1456 16.3948 42.043 16.3671 41.9432C16.3395 41.8435 16.2369 41.7854 16.0317 41.6694Z" fill="#D6CDFF"/>
<path d="M77.8806 1.00696C78.7478 0.35346 79.8041 0 80.8899 0H126.398V18.8958H54.1436L77.8806 1.00696Z" fill="#C4C4C4"/>
<path d="M171.703 1.00696C170.836 0.35346 169.78 0 168.694 0H123.186V18.8958H195.44L171.703 1.00696Z" fill="#C4C4C4"/>
<rect x="79.9438" width="89.7549" height="18.8958" fill="#CDCDCD"/>
<circle cx="24.8918" cy="2.36197" r="2.36197" fill="#A38EFF" fill-opacity="0.44"/>
<circle cx="217.846" cy="68.1339" r="2.36197" fill="#A38EFF" fill-opacity="0.44"/>
<circle cx="247.28" cy="42.3337" r="2.36197" fill="#A38EFF" fill-opacity="0.44"/>
<circle cx="2.36197" cy="21.2575" r="2.36197" fill="#A38EFF" fill-opacity="0.44"/>
<path d="M54.1436 18.896H195.498V93.8397C195.498 96.6011 193.26 98.8397 190.498 98.8397H59.1436C56.3821 98.8397 54.1436 96.6011 54.1436 93.8397V18.896Z" fill="#EEEEEE"/>
<rect x="116.282" y="63.9551" width="16.7155" height="3.6338" fill="#C4C4C4"/>
<rect x="105.338" y="47.0493" width="12.8594" height="3" transform="rotate(45 105.338 47.0493)" fill="#C4C4C4"/>
<rect x="136.338" y="47.0493" width="12.8594" height="3" transform="rotate(45 136.338 47.0493)" fill="#C4C4C4"/>
<rect x="114.214" y="49.1211" width="12.8594" height="3" transform="rotate(135 114.214 49.1211)" fill="#C4C4C4"/>
<rect x="145.214" y="49.1211" width="12.8594" height="3" transform="rotate(135 145.214 49.1211)" fill="#C4C4C4"/>
</svg>
