<svg width="250" height="109" viewBox="0 0 250 109" fill="none" xmlns="http://www.w3.org/2000/svg">
<circle cx="27.5" cy="8.5" r="3.5" fill="#D6CDFF"/>
<circle cx="212.5" cy="15.5" r="3.5" fill="#D6CDFF"/>
<circle cx="60.8601" cy="78.8601" r="9.5" transform="rotate(-81.066 60.8601 78.8601)" fill="#CDCDCD"/>
<circle cx="188.5" cy="78.2695" r="9.5" fill="#CDCDCD"/>
<circle cx="124.5" cy="54.5" r="54.5" fill="#CDCDCD"/>
<circle cx="125" cy="50" r="50" fill="#EEEEEE"/>
<circle cx="60.0274" cy="78.6927" r="8.5" transform="rotate(-81.066 60.0274 78.6927)" fill="#EEEEEE"/>
<circle cx="189.5" cy="78.2695" r="8.5" fill="#EEEEEE"/>
<path d="M213.721 50.0665L211.759 48.9569C209.743 47.8163 208.735 47.246 208.687 46.3465C208.639 45.447 209.58 44.7719 211.462 43.4215L220.149 37.1885L220.149 37.1885C221.339 36.3346 221.934 35.9076 222.18 36.1284C222.426 36.3492 222.065 36.9866 221.344 38.2615L217.757 44.6026C217.566 44.94 217.47 45.1086 217.516 45.2728C217.561 45.4369 217.73 45.5323 218.067 45.7232L220.029 46.8328C222.045 47.9734 223.053 48.5437 223.101 49.4432C223.15 50.3427 222.209 51.0178 220.327 52.3681L211.639 58.6012C210.449 59.4551 209.854 59.8821 209.608 59.6613C209.362 59.4405 209.723 58.803 210.444 57.5281L214.031 51.1871C214.222 50.8497 214.318 50.681 214.272 50.5169C214.227 50.3528 214.058 50.2574 213.721 50.0665Z" fill="#D6CDFF"/>
<path d="M37.8846 45.2359L35.7163 46.5946C33.4873 47.9913 32.3728 48.6897 31.4483 48.2517C30.5239 47.8138 30.3584 46.509 30.0273 43.8995L28.4993 31.8541C28.2899 30.2039 28.1853 29.3788 28.5387 29.2526C28.8921 29.1264 29.3337 29.8311 30.217 31.2407L34.61 38.2514C34.8438 38.6244 34.9606 38.8109 35.1491 38.8542C35.3376 38.8974 35.5241 38.7806 35.8972 38.5468L38.0655 37.1881C40.2945 35.7914 41.409 35.093 42.3335 35.5309C43.2579 35.9689 43.4234 37.2737 43.7545 39.8832L45.2825 51.9286C45.4919 53.5788 45.5965 54.4039 45.2431 54.5301C44.8897 54.6563 44.4481 53.9516 43.5648 52.542L39.1718 45.5313C38.938 45.1583 38.8212 44.9718 38.6327 44.9285C38.4442 44.8852 38.2577 45.0021 37.8846 45.2359Z" fill="#D6CDFF"/>
<circle cx="247.28" cy="45.3316" r="2.36197" fill="#A38EFF" fill-opacity="0.44"/>
<circle cx="2.36197" cy="24.2554" r="2.36197" fill="#A38EFF" fill-opacity="0.44"/>
<path d="M130 62.9979C130 64.6548 128.657 65.9979 127 65.9979L123 65.9979C121.343 65.9979 120 64.6548 120 62.9979L120 54.9979L130 54.9979L130 62.9979Z" fill="#C4C4C4"/>
<rect x="103.999" y="46" width="12.8594" height="3" transform="rotate(13.428 103.999 46)" fill="#C4C4C4"/>
<path d="M103.304 52.1655L116.506 49.0004L116.506 51.9081L104.042 55.0732L103.304 52.1655Z" fill="#C4C4C4"/>
<rect x="145.2" y="55.0732" width="12.8594" height="3" transform="rotate(-166.572 145.2 55.0732)" fill="#C4C4C4"/>
<path d="M145.896 48.9077L132.693 52.0729L132.693 49.1651L145.157 46L145.896 48.9077Z" fill="#C4C4C4"/>
</svg>
