<svg width="198" height="89" viewBox="0 0 198 89" fill="none" xmlns="http://www.w3.org/2000/svg">
<circle cx="25.7217" cy="16.9788" r="2.81081" fill="#D6CDFF"/>
<circle cx="167.176" cy="12.4954" r="2.81081" fill="#D6CDFF"/>
<circle cx="96.5043" cy="44.658" r="43.7684" fill="#CDCDCD"/>
<circle cx="96.906" cy="41.0441" r="40.1545" fill="#EEEEEE"/>
<path d="M168.009 41.0551L167.457 40.7429C165.441 39.6023 164.433 39.032 164.384 38.1325C164.336 37.233 165.277 36.5578 167.159 35.2075L172.715 31.2213L172.715 31.2212C173.905 30.3673 174.5 29.9404 174.746 30.1612C174.992 30.3819 174.631 31.0194 173.91 32.2943L171.471 36.6059C171.28 36.9433 171.184 37.112 171.23 37.2761C171.275 37.4402 171.444 37.5357 171.781 37.7265L172.333 38.0388C174.349 39.1794 175.357 39.7497 175.406 40.6492C175.454 41.5487 174.513 42.2238 172.631 43.5742L167.075 47.5604C165.885 48.4143 165.29 48.8413 165.044 48.6205C164.798 48.3997 165.159 47.7623 165.88 46.4874L168.319 42.1757C168.51 41.8384 168.606 41.6697 168.56 41.5055C168.515 41.3414 168.346 41.246 168.009 41.0551Z" fill="#D6CDFF"/>
<path d="M26.3641 38.6679L25.7539 39.0503C23.5249 40.447 22.4104 41.1454 21.486 40.7074C20.5615 40.2695 20.396 38.9647 20.0649 36.3552L19.0877 28.6517C18.8784 27.0015 18.7737 26.1764 19.1271 26.0502C19.4805 25.924 19.9221 26.6288 20.8054 28.0383L23.7925 32.8053C24.0262 33.1783 24.1431 33.3648 24.3316 33.4081C24.5201 33.4514 24.7066 33.3345 25.0796 33.1008L25.6898 32.7184C27.9188 31.3216 29.0333 30.6233 29.9578 31.0612C30.8822 31.4992 31.0477 32.804 31.3788 35.4135L32.356 43.117C32.5654 44.7672 32.67 45.5923 32.3166 45.7185C31.9632 45.8447 31.5216 45.1399 30.6383 43.7303L27.6512 38.9634C27.4175 38.5903 27.3006 38.4038 27.1121 38.3606C26.9236 38.3173 26.7371 38.4342 26.3641 38.6679Z" fill="#D6CDFF"/>
<circle cx="196.103" cy="37.4691" r="1.89687" fill="#A38EFF" fill-opacity="0.44"/>
<path d="M101.45 43.8955C101.45 45.5524 100.106 46.8955 98.4496 46.8955L96.4187 46.8955C94.7618 46.8955 93.4187 45.5524 93.4187 43.8955L93.4187 38.0615L101.45 38.0615L101.45 43.8955Z" fill="#C4C4C4"/>
<rect x="80.0402" y="30.6035" width="10.3273" height="2.40927" transform="rotate(13.428 80.0402 30.6035)" fill="#C4C4C4"/>
<path d="M79.481 35.5557L90.0835 33.0138L90.0835 35.3489L80.074 37.8908L79.481 35.5557Z" fill="#C4C4C4"/>
<rect x="113.128" y="37.8906" width="10.3273" height="2.40927" transform="rotate(-166.572 113.128 37.8906)" fill="#C4C4C4"/>
<path d="M113.687 32.9385L103.085 35.4804L103.085 33.1452L113.094 30.6033L113.687 32.9385Z" fill="#C4C4C4"/>
<circle cx="152.391" cy="49.2842" r="8.30565" fill="#CDCDCD"/>
<circle cx="153.265" cy="49.2839" r="7.43138" fill="#EEEEEE"/>
<circle cx="40.7983" cy="49.8008" r="8.30565" transform="rotate(-81.066 40.7983 49.8008)" fill="#CDCDCD"/>
<circle cx="40.0703" cy="49.6537" r="7.43138" transform="rotate(-81.066 40.0703 49.6537)" fill="#EEEEEE"/>
</svg>
