<svg width="119" height="82" viewBox="0 0 119 82" fill="none" xmlns="http://www.w3.org/2000/svg">
<circle cx="60.6125" cy="40.7327" r="40.7327" fill="#CDCDCD"/>
<circle cx="60.9861" cy="37.3694" r="37.3694" fill="#EEEEEE"/>
<circle cx="8.56443" cy="53.3581" r="7.10019" transform="rotate(-81.066 8.56443 53.3581)" fill="#CDCDCD"/>
<circle cx="7.94198" cy="52.5038" r="6.3528" transform="rotate(-81.066 7.94198 52.5038)" fill="#EEEEEE"/>
<circle cx="111.435" cy="50.1002" r="7.10019" fill="#CDCDCD"/>
<circle cx="112.182" cy="49.3528" r="6.3528" fill="#EEEEEE"/>
<rect x="55.7544" y="48" width="9.61098" height="2.24216" fill="#C4C4C4"/>
<rect x="27" y="27" width="66" height="3" fill="#C4C4C4"/>
<rect x="54" y="25" width="12" height="5" fill="#EEEEEE"/>
<rect x="29.3774" y="29.9609" width="60.5918" height="2.69297" fill="#C4C4C4"/>
<rect x="32.0703" y="32.6523" width="55.2059" height="2.69297" fill="#C4C4C4"/>
<path d="M34.5 35.3477H54.7776V38.0406H34.5V35.3477Z" fill="#C4C4C4"/>
<rect x="64.7769" y="35.3477" width="19.8065" height="2.69297" fill="#C4C4C4"/>
<rect x="68.0781" y="38.0391" width="13.2043" height="2.69297" fill="#C4C4C4"/>
<rect x="37.5112" y="38.0391" width="13.185" height="2.69297" fill="#C4C4C4"/>
<rect x="34.7632" y="32.6523" width="2.69297" height="2.69297" fill="white"/>
<rect x="34.7632" y="32.6523" width="2.69297" height="2.69297" fill="white"/>
<rect x="37.4561" y="35.3477" width="2.69297" height="2.69297" fill="white"/>
<rect x="37.4561" y="35.3477" width="2.69297" height="2.69297" fill="white"/>
<rect x="40.1489" y="38.0391" width="2.69297" height="2.69297" fill="white"/>
<rect x="40.1489" y="38.0391" width="2.69297" height="2.69297" fill="white"/>
<rect x="40.1489" y="38.0391" width="2.69297" height="2.69297" fill="white"/>
<rect x="40.1489" y="38.0391" width="2.69297" height="2.69297" fill="white"/>
<rect x="37.4561" y="29.9609" width="2.69297" height="2.69297" fill="white"/>
<rect x="37.4561" y="29.9609" width="2.69297" height="2.69297" fill="white"/>
<rect x="40.1489" y="32.6523" width="2.69297" height="2.69297" fill="white"/>
<rect x="40.1489" y="32.6523" width="2.69297" height="2.69297" fill="white"/>
<rect x="42.8423" y="35.3477" width="2.69297" height="2.69297" fill="white"/>
<rect x="42.8423" y="35.3477" width="2.69297" height="2.69297" fill="white"/>
<rect x="67.0786" y="32.6523" width="2.69297" height="2.69297" fill="white"/>
<rect x="67.0786" y="32.6523" width="2.69297" height="2.69297" fill="white"/>
<rect x="69.772" y="35.3477" width="2.69297" height="2.69297" fill="white"/>
<rect x="69.772" y="35.3477" width="2.69297" height="2.69297" fill="white"/>
<rect x="72.4648" y="38.0391" width="2.69297" height="2.69297" fill="white"/>
<rect x="72.4648" y="38.0391" width="2.69297" height="2.69297" fill="white"/>
<rect x="69.772" y="29.9609" width="2.69297" height="2.69297" fill="white"/>
<rect x="69.772" y="29.9609" width="2.69297" height="2.69297" fill="white"/>
<rect x="72.4648" y="32.6523" width="2.69297" height="2.69297" fill="white"/>
<rect x="72.4648" y="32.6523" width="2.69297" height="2.69297" fill="white"/>
<rect x="75.1577" y="35.3477" width="2.69297" height="2.69297" fill="white"/>
<rect x="75.1577" y="35.3477" width="2.69297" height="2.69297" fill="white"/>
</svg>
