<svg width="250" height="109" viewBox="0 0 250 109" fill="none" xmlns="http://www.w3.org/2000/svg">
<circle cx="124.5" cy="54.5" r="54.5" fill="#CDCDCD"/>
<circle cx="125" cy="50" r="50" fill="#EEEEEE"/>
<circle cx="78.8601" cy="85.8601" r="9.5" transform="rotate(-81.066 78.8601 85.8601)" fill="#CDCDCD"/>
<circle cx="78.0274" cy="84.7171" r="8.5" transform="rotate(-81.066 78.0274 84.7171)" fill="#EEEEEE"/>
<circle cx="165.5" cy="87.5" r="9.5" fill="#CDCDCD"/>
<circle cx="166.5" cy="86.5" r="8.5" fill="#EEEEEE"/>
<path d="M207.721 77.067L205.759 75.9574C203.743 74.8168 202.735 74.2465 202.687 73.347C202.639 72.4475 203.58 71.7723 205.462 70.422L214.149 64.189L214.149 64.189C215.339 63.3351 215.934 62.9081 216.18 63.1289C216.426 63.3497 216.065 63.9871 215.344 65.262L211.757 71.6031C211.566 71.9404 211.47 72.1091 211.516 72.2732C211.561 72.4374 211.73 72.5328 212.067 72.7237L214.029 73.8333C216.045 74.9738 217.053 75.5441 217.101 76.4436C217.15 77.3431 216.209 78.0183 214.327 79.3686L205.639 85.6017C204.449 86.4556 203.854 86.8825 203.608 86.6618C203.362 86.441 203.723 85.8035 204.444 84.5286L208.031 78.1876C208.222 77.8502 208.318 77.6815 208.272 77.5174C208.227 77.3533 208.058 77.2579 207.721 77.067Z" fill="#D6CDFF"/>
<path d="M37.8846 45.2363L35.7163 46.5951C33.4873 47.9918 32.3728 48.6902 31.4483 48.2522C30.5239 47.8143 30.3584 46.5095 30.0273 43.9L28.4993 31.8545C28.2899 30.2043 28.1853 29.3792 28.5387 29.253C28.8921 29.1268 29.3337 29.8316 30.217 31.2412L34.61 38.2519C34.8438 38.6249 34.9606 38.8114 35.1491 38.8547C35.3376 38.8979 35.5241 38.7811 35.8972 38.5473L38.0655 37.1886C40.2945 35.7918 41.409 35.0935 42.3335 35.5314C43.2579 35.9694 43.4234 37.2741 43.7545 39.8837L45.2825 51.9291C45.4919 53.5793 45.5965 54.4044 45.2431 54.5306C44.8897 54.6568 44.4481 53.952 43.5648 52.5425L39.1718 45.5318C38.938 45.1588 38.8212 44.9723 38.6327 44.929C38.4442 44.8857 38.2577 45.0026 37.8846 45.2363Z" fill="#D6CDFF"/>
<circle cx="247.28" cy="45.3332" r="2.36197" fill="#A38EFF" fill-opacity="0.44"/>
<circle cx="2.36197" cy="24.257" r="2.36197" fill="#A38EFF" fill-opacity="0.44"/>
<rect x="116.281" y="66.9546" width="16.7155" height="3.6338" fill="#C4C4C4"/>
<rect x="105.338" y="50.0488" width="12.8594" height="3" transform="rotate(45 105.338 50.0488)" fill="#C4C4C4"/>
<rect x="136.338" y="50.0488" width="12.8594" height="3" transform="rotate(45 136.338 50.0488)" fill="#C4C4C4"/>
<rect x="114.215" y="52.1206" width="12.8594" height="3" transform="rotate(135 114.215 52.1206)" fill="#C4C4C4"/>
<rect x="145.215" y="52.1206" width="12.8594" height="3" transform="rotate(135 145.215 52.1206)" fill="#C4C4C4"/>
<circle cx="27.5" cy="8.5" r="3.5" fill="#D6CDFF"/>
<circle cx="206.5" cy="42.5" r="3.5" fill="#D6CDFF"/>
</svg>
