<svg width="96" height="100" viewBox="0 0 96 100" fill="none" xmlns="http://www.w3.org/2000/svg">
<path d="M91.6685 0H64.5836C62.2841 0 60.4179 1.8662 60.4179 4.16562V21.0114L42.5308 38.8986H60.4179V55.7444C60.4179 58.0438 62.2841 59.91 64.5836 59.91H91.6685C93.9679 59.91 95.8341 58.0438 95.8341 55.7444V4.16562C95.8341 1.8662 93.9679 0 91.6685 0Z" fill="#00B9E4"/>
<path d="M4.16562 59.9105H31.2505C33.5499 59.9105 35.4161 58.0443 35.4161 55.7449V38.8991L53.3033 21.0119H35.4161V4.16611C35.4161 1.86669 33.5499 0.000488281 31.2505 0.000488281H4.16562C1.8662 0.000488281 0 1.86669 0 4.16611V55.7449C0 58.0443 1.8662 59.9105 4.16562 59.9105Z" fill="#00B9E4"/>
<g clip-path="url(#clip0_2141:2861)">
<path d="M78.3889 19.312C80.2708 19.312 81.7964 17.7864 81.7964 15.9046C81.7964 14.0227 80.2708 12.4971 78.3889 12.4971C76.507 12.4971 74.9814 14.0227 74.9814 15.9046C74.9814 17.7864 76.507 19.312 78.3889 19.312Z" fill="white"/>
<path d="M78.3889 33.5835C80.2708 33.5835 81.7964 32.0579 81.7964 30.176C81.7964 28.2941 80.2708 26.7686 78.3889 26.7686C76.507 26.7686 74.9814 28.2941 74.9814 30.176C74.9814 32.0579 76.507 33.5835 78.3889 33.5835Z" fill="white"/>
<path d="M78.3889 47.855C80.2708 47.855 81.7964 46.3294 81.7964 44.4475C81.7964 42.5656 80.2708 41.04 78.3889 41.04C76.507 41.04 74.9814 42.5656 74.9814 44.4475C74.9814 46.3294 76.507 47.855 78.3889 47.855Z" fill="white"/>
</g>
<path d="M16.6033 93.6668H5.56817V88.2456H17.0805C18.3464 88.2456 19.3921 87.2274 19.3921 85.9615C19.3921 84.6956 18.3464 83.6499 17.0805 83.6499H5.56817V78.2561H16.6033C17.8692 78.2561 18.9149 77.2379 18.9149 75.9721C18.9149 74.7062 17.8692 73.6605 16.6033 73.6605H3.28408C2.01821 73.6605 1 74.7062 1 75.9721V95.9509C1 97.2168 2.01821 98.235 3.28408 98.235H16.6033C17.8692 98.235 18.9149 97.2168 18.9149 95.9509C18.9149 94.685 17.8692 93.6668 16.6033 93.6668Z" fill="#00B9E4"/>
<path d="M35.2789 85.9615L42.2687 77.4306C43.0943 76.4399 42.9292 74.9814 41.966 74.1833C40.9753 73.3853 39.5168 73.5229 38.7188 74.5135L32.3068 82.329L25.8949 74.5135C25.0693 73.5229 23.6383 73.3853 22.6476 74.1833C21.6569 74.9814 21.5193 76.4399 22.3174 77.4306L29.3348 85.9615L22.3174 94.4924C21.5193 95.4831 21.6569 96.9141 22.6476 97.7396C23.0879 98.0699 23.5833 98.235 24.1061 98.235C24.7666 98.235 25.427 97.9598 25.8949 97.4094L32.3068 89.5665L38.7188 97.4094C39.1866 97.9598 39.847 98.235 40.5075 98.235C41.0028 98.235 41.5257 98.0699 41.966 97.7396C42.9292 96.9141 43.0943 95.4831 42.2687 94.4924L35.2789 85.9615Z" fill="#00B9E4"/>
<path d="M69.9514 86.0165C69.9514 78.8616 64.0898 73 56.9349 73C49.7524 73 43.9184 78.8616 43.9184 86.0165C43.9184 93.199 49.7524 99.033 56.9349 99.033C64.0898 99.033 69.9514 93.199 69.9514 86.0165ZM56.9349 94.4649C52.2842 94.4649 48.4865 90.6672 48.4865 86.0165C48.4865 81.3933 52.2842 77.5957 56.9349 77.5957C61.5581 77.5957 65.3557 81.3933 65.3557 86.0165C65.3557 90.6672 61.5581 94.4649 56.9349 94.4649Z" fill="#00B9E4"/>
<path d="M94.5047 97.3544C94.5047 97.3269 94.5322 97.2993 94.5597 97.2718C94.5597 97.2443 94.5872 97.2443 94.5872 97.2168C94.6147 97.1893 94.6147 97.1617 94.6423 97.1342C94.6423 97.1067 94.6698 97.1067 94.6698 97.0792C94.7248 97.0242 94.7523 96.9416 94.7798 96.8866C94.7798 96.8866 94.7798 96.8866 94.7798 96.859C94.8074 96.8315 94.8074 96.804 94.8349 96.7765C94.8349 96.749 94.8349 96.7214 94.8624 96.7214C94.8624 96.6939 94.8624 96.6389 94.8899 96.6114C94.8899 96.6114 94.8899 96.5838 94.8899 96.5563C94.9174 96.5288 94.9174 96.5013 94.945 96.4463V96.4187C94.945 96.3362 94.9725 96.2811 94.9725 96.1986C94.9725 96.1986 94.9725 96.1711 95 96.1711C95 96.116 95 96.0885 95 96.061C95 96.0335 95 96.0059 95 96.0059C95 95.9784 95 95.9509 95 95.9234V95.8959C95 95.8684 95 95.8408 95 95.8408C95 95.7858 95 95.7583 95 95.7308V75.9445C95 74.6787 93.9543 73.6605 92.6884 73.6605C91.4225 73.6605 90.4043 74.6787 90.4043 75.9445V89.6766L77.5254 74.486C77.0851 73.9632 76.4521 73.6605 75.7366 73.6605C74.3332 73.6605 73.3975 74.8438 73.4526 76.0821V95.9234C73.4526 97.2168 74.4708 98.235 75.7366 98.235C77.0025 98.235 78.0483 97.2168 78.0483 95.9234V82.2189L90.9272 97.4094C90.9272 97.4094 90.9272 97.3819 90.8997 97.3819C90.9272 97.4094 90.9547 97.4369 90.9822 97.4645C90.9822 97.492 91.0097 97.492 91.0097 97.492C91.0373 97.5195 91.0648 97.547 91.0648 97.5745C91.0923 97.5745 91.0923 97.5745 91.0923 97.5745C91.1749 97.6571 91.2299 97.7121 91.3124 97.7672L91.34 97.7947C91.3675 97.8222 91.395 97.8222 91.4225 97.8497C91.45 97.8772 91.4776 97.8772 91.5051 97.9048C91.5326 97.9323 91.5876 97.9598 91.6152 97.9873C91.6427 97.9873 91.6427 97.9873 91.6702 98.0148C91.6977 98.0148 91.6977 98.0148 91.7252 98.0148C91.7252 98.0424 91.7528 98.0424 91.7528 98.0424H91.7803C91.7527 98.0424 91.7528 98.0424 91.7528 98.0424C91.7528 98.0424 91.7527 98.0424 91.7252 98.0148C91.8078 98.0424 91.8628 98.0699 91.9179 98.0974C91.9454 98.0974 91.9729 98.1249 91.9729 98.1249C92.0279 98.1249 92.083 98.1524 92.1105 98.1524C92.138 98.18 92.1655 98.18 92.1655 98.18C92.2206 98.18 92.2756 98.2075 92.3031 98.2075C92.3307 98.2075 92.3582 98.2075 92.3582 98.2075C92.4407 98.235 92.4958 98.235 92.5508 98.235H92.5783C92.6334 98.235 92.6884 98.235 92.7434 98.235C92.771 98.235 92.771 98.235 92.7985 98.235C92.826 98.235 92.881 98.235 92.9085 98.235C92.9361 98.235 92.9636 98.235 92.9636 98.235C93.0186 98.235 93.0737 98.2075 93.1012 98.2075C93.1287 98.2075 93.1287 98.2075 93.1287 98.2075C93.1287 98.2075 93.1287 98.2075 93.1562 98.2075C93.2113 98.2075 93.2663 98.18 93.3213 98.1524H93.3489C93.4039 98.1249 93.4314 98.1249 93.4589 98.0974C93.4865 98.0974 93.514 98.0974 93.5415 98.0974C93.569 98.0699 93.5965 98.0699 93.624 98.0424C93.6516 98.0424 93.6791 98.0148 93.6791 98.0148C93.7341 97.9873 93.7616 97.9598 93.8167 97.9598C93.8167 97.9323 93.8167 97.9323 93.8442 97.9323C93.8442 97.9323 93.8442 97.9323 93.8717 97.9323C93.8992 97.9048 93.9268 97.8772 93.9818 97.8497C93.9818 97.8222 94.0093 97.8222 94.0368 97.7947C94.0643 97.7947 94.0919 97.7672 94.0919 97.7396C94.1194 97.7396 94.1469 97.7121 94.1744 97.7121C94.1744 97.6846 94.202 97.6571 94.2295 97.6296C94.257 97.6296 94.257 97.6021 94.2845 97.5745C94.312 97.547 94.3395 97.5195 94.3946 97.492C94.3946 97.4645 94.4221 97.4369 94.4496 97.4094C94.4496 97.3819 94.4771 97.3819 94.5047 97.3544Z" fill="#00B9E4"/>
<defs>
<clipPath id="clip0_2141:2861">
<rect width="6.82329" height="35.3661" fill="white" transform="translate(74.9814 12.4971)"/>
</clipPath>
</defs>
</svg>
