<svg width="56" height="35" viewBox="0 0 56 35" fill="none" xmlns="http://www.w3.org/2000/svg">
<path d="M2.42127 34.8227H18.1644C19.5009 34.8227 20.5856 33.738 20.5856 32.4014V22.6098L30.9826 12.2129H20.5856V2.42127C20.5856 1.08473 19.5009 0 18.1644 0H2.42127C1.08473 0 0 1.08473 0 2.42127V32.4014C0 33.738 1.08473 34.8227 2.42127 34.8227Z" fill="white"/>
<path fill-rule="evenodd" clip-rule="evenodd" d="M37.5399 0H53.283C54.6195 0 55.7042 1.08473 55.7042 2.42127V32.4014C55.7042 33.738 54.6195 34.8227 53.283 34.8227H37.5399C36.2033 34.8227 35.1186 33.738 35.1186 32.4014V22.6098H24.7217L35.1186 12.2129V2.42127C35.1186 1.08473 36.2033 0 37.5399 0ZM47.5441 9.24424C47.5441 10.3381 46.6574 11.2248 45.5636 11.2248C44.4697 11.2248 43.583 10.3381 43.583 9.24424C43.583 8.15039 44.4697 7.26364 45.5636 7.26364C46.6574 7.26364 47.5441 8.15039 47.5441 9.24424ZM45.5635 19.5201C46.6574 19.5201 47.5441 18.6334 47.5441 17.5395C47.5441 16.4457 46.6574 15.5589 45.5635 15.5589C44.4697 15.5589 43.5829 16.4457 43.5829 17.5395C43.5829 18.6334 44.4697 19.5201 45.5635 19.5201ZM47.5441 25.8347C47.5441 26.9285 46.6574 27.8153 45.5635 27.8153C44.4697 27.8153 43.5829 26.9285 43.5829 25.8347C43.5829 24.7408 44.4697 23.8541 45.5635 23.8541C46.6574 23.8541 47.5441 24.7408 47.5441 25.8347Z" fill="white"/>
</svg>
