<svg width="73" height="46" viewBox="0 0 73 46" fill="none" xmlns="http://www.w3.org/2000/svg">
<path d="M69.2379 0.307617H48.8869C47.1592 0.307617 45.757 1.70984 45.757 3.43758V16.0952L32.3169 29.5352H45.757V42.1928C45.757 43.9205 47.1592 45.3228 48.8869 45.3228H69.2379C70.9657 45.3228 72.3679 43.9205 72.3679 42.1928V3.43758C72.3679 1.70984 70.9657 0.307617 69.2379 0.307617Z" fill="#9AD9E8"/>
<path d="M3.49117 45.3237H23.8422C25.5699 45.3237 26.9722 43.9215 26.9722 42.1938V29.5362L40.4122 16.0961H26.9722V3.43856C26.9722 1.71082 25.5699 0.308594 23.8422 0.308594H3.49117C1.76343 0.308594 0.361206 1.71082 0.361206 3.43856V42.1938C0.361206 43.9215 1.76343 45.3237 3.49117 45.3237Z" fill="#9AD9E8"/>
<g clip-path="url(#clip0_2627_5530)">
<path d="M59.2611 14.8198C60.6751 14.8198 61.8214 13.6735 61.8214 12.2595C61.8214 10.8455 60.6751 9.69922 59.2611 9.69922C57.8471 9.69922 56.7008 10.8455 56.7008 12.2595C56.7008 13.6735 57.8471 14.8198 59.2611 14.8198Z" fill="white"/>
<path d="M59.2611 25.5425C60.6751 25.5425 61.8214 24.3962 61.8214 22.9822C61.8214 21.5682 60.6751 20.4219 59.2611 20.4219C57.8471 20.4219 56.7008 21.5682 56.7008 22.9822C56.7008 24.3962 57.8471 25.5425 59.2611 25.5425Z" fill="white"/>
<path d="M59.2611 36.2661C60.6751 36.2661 61.8214 35.1198 61.8214 33.7058C61.8214 32.2918 60.6751 31.1455 59.2611 31.1455C57.8471 31.1455 56.7008 32.2918 56.7008 33.7058C56.7008 35.1198 57.8471 36.2661 59.2611 36.2661Z" fill="white"/>
</g>
<defs>
<clipPath id="clip0_2627_5530">
<rect width="5.12688" height="26.5734" fill="white" transform="translate(56.7015 9.69922)"/>
</clipPath>
</defs>
</svg>
