<svg width="34" height="92" viewBox="0 0 34 92" fill="none" xmlns="http://www.w3.org/2000/svg">
<path d="M25.7874 12.6708L26.3875 12.8251C29.4252 13.5969 30.14 16.1028 29.7048 19.2007C29.72 19.701 29.8105 20.1851 29.9763 20.6531C32.2148 25.5206 31.0481 25.8125 32.3714 29.9232C32.3899 29.9734 32.3896 30.0067 32.3893 30.0567C32.8725 30.7937 32.6386 37.2942 32.2155 41.3259C32.2337 41.4094 32.2332 41.4761 32.2139 41.5593C32.0344 43.0252 31.998 42.8582 32.2011 43.3598C32.4042 43.8614 33.1935 46.4679 33.2112 46.6181C33.2471 46.8517 33.2454 47.0852 33.2063 47.3016C33.0509 48.0341 32.8942 48.9333 32.5555 49.0142C32.3645 49.463 32.0618 49.761 31.8734 49.843C31.4189 50.3566 31.2852 50.6725 31.0978 50.6045C30.9104 50.5364 30.8367 50.3358 30.913 50.1697C30.913 50.1697 30.913 50.1697 30.9132 50.153C30.9898 49.9368 30.8947 50.1028 30.7427 50.3519C30.5527 50.6506 30.3814 50.9662 30.2495 51.0319C29.7067 50.7446 30.068 50.1303 30.3906 49.6658C30.5804 49.4004 30.2962 49.7318 29.9546 50.2296C29.6509 50.6776 29.3475 51.0755 29.2727 51.025C28.562 50.5865 29.4729 49.2758 29.6243 49.1269C29.6086 48.6933 29.6115 48.2765 29.6334 47.8432C29.4851 47.5587 29.3758 47.0744 29.3058 46.357C29.2286 46.6399 29.114 46.9058 28.9994 47.1718C28.8292 47.3373 29.2884 48.8077 28.0111 48.7986C28.0151 48.2318 28.0207 47.4483 28.0244 46.9148C28.0275 46.4813 28.1857 45.3654 28.1888 44.9319C28.1918 44.4985 29.2893 43.3726 29.346 43.3229C29.3885 42.6397 29.3559 41.9392 29.2856 41.2551C29.2857 41.2385 29.2859 41.2051 29.3048 41.1886C29.0722 39.5531 28.5017 37.8818 28.1146 36.8454C27.7274 35.809 27.0279 33.7867 27.1696 32.3538C27.1511 32.3037 27.1328 32.2369 27.152 32.187C27.1364 31.7367 27.196 31.2703 27.3494 30.8379C25.881 28.6268 25.0722 26.1202 25.0341 23.5524C24.5705 25.3498 23.2015 27.6742 23.1917 29.0579C23.1799 30.725 23.734 32.0628 23.7262 33.1631C23.7215 33.8299 23.5082 34.7621 23.0862 35.9928C23.8281 37.3318 26.8819 43.789 27.3508 49.1941C27.8022 54.4157 27.8901 57.9175 27.2638 61.4809C28.6422 63.1246 29.1884 68.2302 28.2102 73.7251C27.8387 75.7731 28.2956 80.2279 28.7116 82.4982C29.1275 84.7686 26.291 84.7652 25.3002 84.0913C24.7394 83.7038 23.8459 82.5471 24.2459 81.7663C24.2203 80.0823 23.618 74.943 22.1414 71.2479C21.3664 69.2751 21.4267 66.0745 21.533 64.3246C21.5149 64.2245 21.478 64.1242 21.46 64.024C21.2413 63.0721 21.3749 62.773 21.3976 62.223C20.7881 60.7515 19.1906 58.206 18.6054 55.9678C18.1117 54.0636 17.6573 51.9097 17.2047 49.5057L16.7352 49.4857C16.5617 50.118 16.4256 50.7672 16.327 51.4334C16.1847 52.9496 16.3922 55.4853 13.77 62.3523C13.7631 63.3193 14.1004 63.4384 13.9606 64.6044C13.9206 64.9543 13.8619 65.2873 13.7655 65.6367C14.3142 67.7246 14.853 71.2296 13.1212 74.3851C11.9791 76.4944 11.3194 79.4574 11.7024 81.0773C12.1855 81.8309 11.9479 83.5465 11.4377 83.9764C10.512 84.7201 6.96521 84.2114 7.4139 81.8638C7.86258 79.5162 7.88775 75.9652 7.15611 73.1758C6.49737 70.7036 6.74368 67.7544 7.34843 64.5909C7.34926 64.4742 7.35009 64.3575 7.35103 64.2241C7.35516 63.6406 7.37773 63.1073 7.41884 62.6074C7.10825 61.3715 6.70233 60.3349 6.29805 56.4141C6.08682 54.4119 6.36161 52.7466 6.3186 50.8624C6.51223 44.745 7.78505 37.4349 8.4152 35.9889L8.45276 35.9892C8.36369 35.305 8.3123 34.6044 8.29836 33.9207C8.30438 33.0705 8.89968 31.2407 9.09957 29.5416C9.25882 28.2756 8.44189 26.9194 7.90731 25.4818C7.70671 27.281 6.69816 29.1078 5.39155 30.5823C6.79847 36.1608 4.35797 38.5944 3.65044 43.0075C3.74377 43.0915 3.81831 43.1754 3.89286 43.2593C4.69396 44.1986 4.8167 45.4332 4.2989 46.9301C4.55834 47.4321 4.74417 47.7168 4.85617 47.8176C5.17384 48.0533 5.43788 47.9051 5.52648 48.656C5.24531 48.5707 4.92669 48.4684 4.64564 48.3663C5.2628 48.7542 5.44792 49.1389 5.23882 49.4876L4.41527 49.0649C4.62072 49.2331 4.75067 49.4508 4.78658 49.6844C4.76615 49.9177 4.68947 50.1339 4.55657 50.333L3.79339 49.344L2.79087 47.6696L3.36266 49.1575C3.75382 49.6271 3.95749 50.0454 3.99269 50.3791C4.0279 50.7128 3.89499 50.9119 3.55664 50.9428C2.88609 50.1378 2.47638 49.6347 2.32729 49.467C1.9372 48.8473 1.60357 48.2114 1.32654 47.5426C1.19777 47.1582 1.16681 46.2243 1.23392 44.7076C1.21726 44.4074 1.2195 44.0906 1.2592 43.7908C1.5784 41.1589 0.00987507 37.1798 0.489868 33.0651C0.570674 32.2654 0.782968 31.4667 1.10761 30.7187C1.18759 30.0357 1.64479 29.1386 1.61135 28.5549C1.31612 22.5008 2.92351 23.6459 2.85003 20.761C2.77654 17.8762 2.5835 15.9576 3.83317 14.5659C4.79895 13.4724 6.98239 12.8543 8.31665 12.7804C8.58092 12.5989 8.88253 12.451 9.18402 12.3198C10.0695 11.9592 10.9922 11.6323 11.9148 11.3388C13.0323 10.0462 12.8279 9.72803 12.8441 7.44404C12.8605 5.12672 19.4276 6.20693 19.4206 7.19054C19.4141 8.10747 18.8922 10.1878 20.2002 11.1641" fill="#D0D0D0"/>
<path d="M30.5362 47.5674L30.7326 49.0023" stroke="#B0B0B0" stroke-width="0.1" stroke-linecap="round"/>
<path d="M31.4752 47.5741L31.5381 49.2914L31.2725 49.6729" stroke="#B0B0B0" stroke-width="0.1" stroke-linecap="round"/>
<path d="M32.5681 47.0819L32.5187 48.7484L32.1567 49.4793" stroke="#B0B0B0" stroke-width="0.1" stroke-linecap="round"/>
<path d="M29.5083 46.8097L29.3071 46.0415L29.096 46.6734" stroke="#B0B0B0" stroke-width="0.1" stroke-linecap="round"/>
<path d="M29.5364 42.7759L29.3249 43.4254" stroke="#B0B0B0" stroke-width="0.1" stroke-linecap="round"/>
<path d="M25.3683 21.339C25.2895 21.8552 25.4912 22.54 26.0113 23.3605" stroke="#B0B0B0" stroke-width="0.1" stroke-linecap="round"/>
<path d="M28.3937 29.1797C28.0147 29.6437 27.7294 30.1584 27.5565 30.7073" stroke="#B0B0B0" stroke-width="0.1" stroke-linecap="round"/>
<path d="M8.7653 63.4008C8.49537 64.3825 8.6213 65.167 9.12419 65.7707C9.62709 66.3745 9.88261 67.4266 9.85319 68.9268" stroke="#B0B0B0" stroke-width="0.1" stroke-linecap="round"/>
<path d="M12.617 63.3289C12.9094 64.4811 12.8284 65.314 12.3554 65.794" stroke="#B0B0B0" stroke-width="0.1" stroke-linecap="round"/>
<path d="M8.8075 23.0037C7.85336 22.4802 7.43097 21.127 7.13061 21.1082C6.83024 21.0894 6.41128 21.9032 5.80653 22.4323" stroke="#B0B0B0" stroke-width="0.1" stroke-linecap="round"/>
<path d="M7.42585 21.9607C7.43825 22.8609 7.22541 23.7428 6.82523 24.5568" stroke="#B0B0B0" stroke-width="0.1" stroke-linecap="round"/>
<path d="M7.63434 21.729C8.35708 23.1179 9.65028 23.5271 11.8855 23.543C14.1207 23.5588 15.8127 23.3541 15.9553 21.788" stroke="#B0B0B0" stroke-width="0.1" stroke-linecap="round"/>
<path d="M23.6484 23.1089C24.6099 22.5989 25.0514 21.2519 25.352 21.2373C25.6526 21.2228 26.06 22.0425 26.6572 22.5801" stroke="#B0B0B0" stroke-width="0.1" stroke-linecap="round"/>
<path d="M24.8401 21.849C24.0978 23.2275 22.7989 23.6184 20.5637 23.6025C18.3285 23.5867 16.6396 23.358 16.5192 21.79" stroke="#B0B0B0" stroke-width="0.1" stroke-linecap="round"/>
<path d="M19.6959 10.8267C19.7677 11.2939 19.896 11.7449 20.0806 12.1962" stroke="#B0B0B0" stroke-width="0.1" stroke-linecap="round"/>
<path d="M12.4248 10.959C12.4033 11.3422 12.3255 11.7251 12.2102 12.091" stroke="#B0B0B0" stroke-width="0.1" stroke-linecap="round"/>
<path d="M22.1618 63.1128C22.1171 64.1128 22.356 64.8647 22.8973 65.352C23.4386 65.8393 23.8262 66.809 24.0975 68.278" stroke="#B0B0B0" stroke-width="0.1" stroke-linecap="round"/>
<path d="M25.9928 63.305C26.1535 64.4896 25.9788 65.2885 25.4497 65.7348" stroke="#B0B0B0" stroke-width="0.1" stroke-linecap="round"/>
<path fill-rule="evenodd" clip-rule="evenodd" d="M5.16654 88.9667C5.38568 89.8518 6.22667 90.4579 7.50215 90.717C8.77763 90.9762 11.0698 90.909 11.7865 90.4973C12.5032 90.0856 13.9037 88.6118 11.9481 86.2473C12.5031 84.8008 13.3748 83.7233 11.9029 82.0124C11.2367 83.258 9.17491 82.6266 7.65725 82.0823C7.3012 81.9631 6.53086 84.6418 6.27758 85.9237C5.40139 87.6346 4.85668 87.6308 5.16654 88.9667Z" fill="#D0D0D0"/>
<path fill-rule="evenodd" clip-rule="evenodd" d="M8.48597 81.7537C9.07049 81.4411 9.82158 81.4797 10.3636 81.867C10.5131 81.9681 10.7545 82.3699 11.1308 82.2726C11.7142 82.1267 11.6616 81.5928 11.8695 81.4109C12.0774 81.229 12.6499 82.6168 12.1148 83.9133C11.5796 85.2099 12.6738 87.2016 12.6738 87.2016C12.6738 87.2016 13.2011 89.656 11.2471 89.7255C10.6834 89.7549 10.7045 89.4216 9.08857 89.4935C8.1115 89.5366 8.31445 90.0549 6.85267 89.5777C5.3909 89.1005 5.02291 88.0143 5.30856 87.4662C5.61322 86.8848 6.1838 85.8886 6.51032 84.8739C6.5597 83.2071 6.90583 82.0759 7.51114 81.48C7.52756 81.8136 7.7891 82.0155 7.92059 82.0164C8.3337 82.036 8.335 81.8526 8.48597 81.7537Z" fill="#D0D0D0"/>
<path fill-rule="evenodd" clip-rule="evenodd" d="M27.5682 81.991C26.9692 81.6866 26.2174 81.748 25.6887 82.1444C25.5376 82.26 25.3095 82.6418 24.9344 82.5558C24.3531 82.4183 24.5637 81.853 24.3583 81.6848C24.1528 81.5166 23.429 82.9286 23.9834 84.2162C24.5566 85.504 23.5093 87.5138 23.5093 87.5138C23.5093 87.5138 23.041 89.9779 25.0131 90.0085C25.5766 90.0125 25.56 89.6956 27.1564 89.7403C28.133 89.7639 27.9414 90.296 29.4101 89.7896C30.8789 89.2832 31.1872 88.1851 30.8904 87.6495C30.5753 87.0637 29.9812 86.0759 29.6126 85.073C29.5117 83.4051 29.1441 82.2689 28.5282 81.6977C28.5071 82.031 28.2614 82.246 28.1487 82.2452C27.7352 82.2756 27.7177 82.0921 27.5682 81.991Z" fill="#D0D0D0"/>
<path fill-rule="evenodd" clip-rule="evenodd" d="M28.3262 83.6474L26.0104 84.4478L27.9004 85.428L25.9225 86.2474L28.1945 86.3302L25.9665 85.3476L27.9443 84.5281L25.6975 83.5454L28.3262 83.6474Z" stroke="#D0D0D0" stroke-width="0.1" stroke-linecap="round" stroke-linejoin="round"/>
<g opacity="0.42" filter="url(#filter0_f_3672_8358)">
<path fill-rule="evenodd" clip-rule="evenodd" d="M13.1399 8.06151C13.1892 9.06214 13.4152 11.6311 14.5944 12.223C15.7736 12.8149 17.1637 12.808 17.8814 12.2463C18.5992 11.6846 19.3079 9.75568 19.3402 7.8387C19.5373 6.53972 12.6605 6.79108 13.1399 8.06151Z" fill="#6B6B6B" fill-opacity="0.7"/>
</g>
<path fill-rule="evenodd" clip-rule="evenodd" d="M12.4801 8.38816C12.5473 9.50562 14.0394 10.9999 14.6561 11.4544C15.2728 11.9089 16.8869 12.0871 17.605 11.4753C18.3232 10.8636 18.9669 10.1513 19.1201 9.73557C19.2733 9.31987 19.7494 8.40632 19.8264 8.14012C20.309 8.96044 22.1572 5.27247 20.5399 5.52776C20.5469 4.54419 20.6766 2.14442 19.1815 1.06686C17.6864 -0.010708 15.7343 -0.207926 13.6809 0.627769C11.6275 1.46346 11.2391 3.26123 11.6917 5.66512C12.0667 5.75114 10.2848 5.38841 10.9682 7.02706C11.4318 7.88058 11.4263 8.64743 12.4801 8.38816Z" fill="#D3D3D3"/>
<path d="M15.9159 11.3823L16.3484 11.3854" stroke="#B0B0B0" stroke-width="0.1" stroke-linecap="round"/>
<path d="M20.7621 6.11496C20.1018 6.52701 19.7616 6.84131 19.7599 7.07467" stroke="#B0B0B0" stroke-width="0.1" stroke-linecap="round"/>
<path d="M20.2695 6.6784L20.2667 7.07843L19.7551 7.70823" stroke="#B0B0B0" stroke-width="0.1" stroke-linecap="round"/>
<path d="M11.2182 6.31445C11.5931 6.41712 11.8917 6.68594 12.002 7.02011" stroke="#B0B0B0" stroke-width="0.1" stroke-linecap="round"/>
<path d="M11.5922 6.61719L11.6815 7.26791L12.1483 7.65461" stroke="#B0B0B0" stroke-width="0.1" stroke-linecap="round"/>
<defs>
<filter id="filter0_f_3672_8358" x="9.11597" y="2.97852" width="14.2284" height="13.689" filterUnits="userSpaceOnUse" color-interpolation-filters="sRGB">
<feFlood flood-opacity="0" result="BackgroundImageFix"/>
<feBlend mode="normal" in="SourceGraphic" in2="BackgroundImageFix" result="shape"/>
<feGaussianBlur stdDeviation="2" result="effect1_foregroundBlur_3672_8358"/>
</filter>
</defs>
</svg>
