<svg width="116" height="79" viewBox="0 0 116 79" fill="none" xmlns="http://www.w3.org/2000/svg">
<circle cx="78.5" cy="32.5" r="32.5" fill="white"/>
<circle cx="90.5" cy="25.5" r="25.5" fill="#1E294D"/>
<path fill-rule="evenodd" clip-rule="evenodd" d="M20.9017 51C16.5543 51 13.0301 54.5242 13.0301 58.8716C13.0301 60.1411 13.3306 61.3403 13.8644 62.4022H7.87159C3.52423 62.4022 0 65.9264 0 70.2738C0 74.6211 3.52423 78.1453 7.87159 78.1453H49.1296C53.4769 78.1453 57.0012 74.6211 57.0012 70.2738C57.0012 69.0043 56.7007 67.805 56.1669 66.7432H62.1597C66.507 66.7432 70.0313 63.219 70.0313 58.8716C70.0313 54.5242 66.507 51 62.1597 51H20.9017Z" fill="#A38EFF"/>
</svg>
