<svg width="110" height="73" viewBox="0 0 110 73" fill="none" xmlns="http://www.w3.org/2000/svg">
<circle cx="75.5" cy="29.5" r="29.5" fill="white"/>
<circle cx="86.3923" cy="23.1462" r="23.1462" fill="#1E294D"/>
<path fill-rule="evenodd" clip-rule="evenodd" d="M20.9017 45C16.5543 45 13.0301 48.5242 13.0301 52.8716C13.0301 54.1411 13.3306 55.3403 13.8644 56.4022H7.87159C3.52423 56.4022 0 59.9264 0 64.2738C0 68.6211 3.52423 72.1453 7.87159 72.1453H49.1296C53.4769 72.1453 57.0012 68.6211 57.0012 64.2738C57.0012 63.0043 56.7007 61.805 56.1669 60.7432H62.1597C66.507 60.7432 70.0313 57.219 70.0313 52.8716C70.0313 48.5242 66.507 45 62.1597 45H20.9017Z" fill="#A38EFF"/>
<path d="M98.3864 11.3783C98.7409 10.4767 100.042 10.5556 100.285 11.4933L100.88 13.7888C100.989 14.2082 101.355 14.5099 101.788 14.5361L104.155 14.6795C105.122 14.7381 105.449 15.9998 104.632 16.5207L102.633 17.796C102.267 18.029 102.094 18.4707 102.202 18.89L102.798 21.1856C103.041 22.1233 101.942 22.8242 101.194 22.2085L99.3632 20.7011C99.0287 20.4257 98.555 20.397 98.1898 20.63L96.1905 21.9053C95.3738 22.4263 94.3675 21.5978 94.7221 20.6962L95.5899 18.4894C95.7485 18.0862 95.6294 17.6268 95.295 17.3514L93.4643 15.8441C92.7164 15.2283 93.1934 14.0153 94.1604 14.0739L96.5274 14.2173C96.9599 14.2435 97.36 13.9883 97.5185 13.5851L98.3864 11.3783Z" fill="white"/>
</svg>
