<svg width="13" height="14" viewBox="0 0 13 14" fill="none" xmlns="http://www.w3.org/2000/svg">
<path d="M1.5 5.625C1.5 3.85723 1.5 2.97335 2.04917 2.42417C2.59835 1.875 3.48223 1.875 5.25 1.875H7.75C9.51777 1.875 10.4017 1.875 10.9508 2.42417C11.5 2.97335 11.5 3.85723 11.5 5.625V9.89226C11.5 11.5693 11.5 12.4078 10.9723 12.6643C10.4446 12.9208 9.78528 12.4027 8.46658 11.3666L8.04455 11.035C7.30307 10.4524 6.93233 10.1611 6.5 10.1611C6.06767 10.1611 5.69693 10.4524 4.95545 11.035L4.53341 11.3666C3.21472 12.4027 2.55537 12.9208 2.02768 12.6643C1.5 12.4078 1.5 11.5693 1.5 9.89226V5.625Z" fill="#A38EFF" stroke="#A38EFF" stroke-width="2"/>
</svg>
