<svg width="25" height="26" viewBox="0 0 25 26" fill="none" xmlns="http://www.w3.org/2000/svg">
<path fill-rule="evenodd" clip-rule="evenodd" d="M21.2 2.80859C22.9544 2.80859 24.3938 4.18533 24.4944 5.91501L24.5 6.10859V17.1086C24.5 18.863 23.1233 20.3024 21.3936 20.403L21.2 20.4086H17.35L14.38 24.3686C14.1721 24.6458 13.8465 24.8086 13.5 24.8086C13.1968 24.8086 12.9096 24.684 12.7033 24.4671L12.62 24.3686L9.65 20.4086H5.8C4.04558 20.4086 2.60619 19.0319 2.50561 17.3022L2.5 17.1086V6.10859C2.5 4.35417 3.87673 2.91478 5.60641 2.81421L5.8 2.80859H21.2ZM21.2 5.00859H5.8C5.23719 5.00859 4.77113 5.43446 4.70742 5.98057L4.7 6.10859V17.1086C4.7 17.6714 5.12586 18.1375 5.67198 18.2012L5.8 18.2086H10.2C10.5032 18.2086 10.7904 18.3332 10.9967 18.5501L11.08 18.6486L13.5 21.8749L15.92 18.6486C16.1019 18.406 16.3739 18.2511 16.6712 18.2161L16.8 18.2086H21.2C21.7628 18.2086 22.2289 17.7827 22.2926 17.2366L22.3 17.1086V6.10859C22.3 5.54579 21.8741 5.07972 21.328 5.01601L21.2 5.00859Z" fill="#777777"/>
<path d="M24.4944 5.91501L24.7444 5.90776L24.744 5.90049L24.4944 5.91501ZM24.5 6.10859L24.7501 6.10859L24.7499 6.10135L24.5 6.10859ZM21.3936 20.403L21.4008 20.653L21.4081 20.6526L21.3936 20.403ZM21.2 20.4086V20.6587L21.2072 20.6585L21.2 20.4086ZM17.35 20.4086V20.1586H17.225L17.15 20.2586L17.35 20.4086ZM14.38 24.3686L14.58 24.5186L14.38 24.3686ZM12.7033 24.4671L12.5124 24.6285L12.5171 24.6341L12.5222 24.6394L12.7033 24.4671ZM12.62 24.3686L12.42 24.5186L12.4244 24.5244L12.4291 24.53L12.62 24.3686ZM9.65 20.4086L9.85 20.2586L9.775 20.1586H9.65V20.4086ZM2.50561 17.3022L2.25561 17.3094L2.25604 17.3167L2.50561 17.3022ZM2.5 17.1086H2.24989L2.25011 17.1158L2.5 17.1086ZM5.60641 2.81421L5.59916 2.56421L5.5919 2.56463L5.60641 2.81421ZM5.8 2.80859L5.8 2.55849L5.79275 2.5587L5.8 2.80859ZM21.2 5.00859L21.2145 4.75901L21.2072 4.75859H21.2V5.00859ZM4.70742 5.98057L4.4591 5.9516L4.45826 5.95884L4.45784 5.96611L4.70742 5.98057ZM4.7 6.10859L4.45042 6.09413L4.45 6.10135V6.10859H4.7ZM5.67198 18.2012L5.64301 18.4495L5.65024 18.4503L5.65751 18.4508L5.67198 18.2012ZM5.8 18.2086L5.78553 18.4582L5.79276 18.4586H5.8V18.2086ZM10.9967 18.5501L11.1876 18.3887L11.1829 18.3831L11.1778 18.3778L10.9967 18.5501ZM11.08 18.6486L11.28 18.4986L11.2756 18.4927L11.2709 18.4872L11.08 18.6486ZM13.5 21.8749L13.3 22.0249L13.5 22.2915L13.7 22.0249L13.5 21.8749ZM15.92 18.6486L16.12 18.7986L16.12 18.7986L15.92 18.6486ZM16.6712 18.2161L16.6566 17.9666L16.6493 17.967L16.642 17.9678L16.6712 18.2161ZM16.8 18.2086V17.9586H16.7927L16.7854 17.959L16.8 18.2086ZM22.2926 17.2366L22.5409 17.2656L22.5417 17.2584L22.5422 17.2511L22.2926 17.2366ZM22.3 17.1086L22.5496 17.1231L22.55 17.1158V17.1086H22.3ZM21.328 5.01601L21.357 4.7677L21.3498 4.76685L21.3425 4.76643L21.328 5.01601ZM21.2 3.05859C22.8211 3.05859 24.1519 4.3312 24.2448 5.92952L24.744 5.90049C24.6357 4.03945 23.0877 2.55859 21.2 2.55859V3.05859ZM24.2445 5.92225L24.2501 6.11584L24.7499 6.10135L24.7443 5.90776L24.2445 5.92225ZM24.25 6.10859V17.1086H24.75V6.10859H24.25ZM24.25 17.1086C24.25 18.7297 22.9774 20.0605 21.3791 20.1534L21.4081 20.6526C23.2691 20.5443 24.75 18.9963 24.75 17.1086H24.25ZM21.3863 20.1531L21.1928 20.1587L21.2072 20.6585L21.4008 20.6529L21.3863 20.1531ZM21.2 20.1586H17.35V20.6586H21.2V20.1586ZM17.15 20.2586L14.18 24.2186L14.58 24.5186L17.55 20.5586L17.15 20.2586ZM14.18 24.2186C14.0193 24.4328 13.7678 24.5586 13.5 24.5586V25.0586C13.9252 25.0586 14.3249 24.8587 14.58 24.5186L14.18 24.2186ZM13.5 24.5586C13.2656 24.5586 13.0438 24.4623 12.8844 24.2948L12.5222 24.6394C12.7754 24.9056 13.128 25.0586 13.5 25.0586V24.5586ZM12.8942 24.3057L12.8109 24.2072L12.4291 24.53L12.5124 24.6285L12.8942 24.3057ZM12.82 24.2186L9.85 20.2586L9.45 20.5586L12.42 24.5186L12.82 24.2186ZM9.65 20.1586H5.8V20.6586H9.65V20.1586ZM5.8 20.1586C4.17886 20.1586 2.84813 18.886 2.75519 17.2877L2.25604 17.3167C2.36425 19.1777 3.9123 20.6586 5.8 20.6586V20.1586ZM2.75551 17.2949L2.74989 17.1013L2.25011 17.1158L2.25572 17.3094L2.75551 17.2949ZM2.75 17.1086V6.10859H2.25V17.1086H2.75ZM2.75 6.10859C2.75 4.48746 4.0226 3.15672 5.62092 3.06379L5.5919 2.56463C3.73086 2.67284 2.25 4.22089 2.25 6.10859H2.75ZM5.61366 3.0641L5.80725 3.05849L5.79275 2.5587L5.59917 2.56431L5.61366 3.0641ZM5.8 3.05859H21.2V2.55859H5.8V3.05859ZM21.2 4.75859H5.8V5.25859H21.2V4.75859ZM5.8 4.75859C5.10867 4.75859 4.53732 5.28114 4.4591 5.9516L4.95574 6.00954C5.00494 5.58778 5.36572 5.25859 5.8 5.25859V4.75859ZM4.45784 5.96611L4.45042 6.09413L4.94958 6.12306L4.957 5.99504L4.45784 5.96611ZM4.45 6.10859V17.1086H4.95V6.10859H4.45ZM4.45 17.1086C4.45 17.7999 4.97254 18.3713 5.64301 18.4495L5.70095 17.9529C5.27918 17.9037 4.95 17.5429 4.95 17.1086H4.45ZM5.65751 18.4508L5.78553 18.4582L5.81447 17.959L5.68645 17.9516L5.65751 18.4508ZM5.8 18.4586H10.2V17.9586H5.8V18.4586ZM10.2 18.4586C10.4344 18.4586 10.6562 18.5549 10.8156 18.7224L11.1778 18.3778C10.9246 18.1116 10.572 17.9586 10.2 17.9586V18.4586ZM10.8058 18.7115L10.8891 18.81L11.2709 18.4872L11.1876 18.3887L10.8058 18.7115ZM10.88 18.7986L13.3 22.0249L13.7 21.7249L11.28 18.4986L10.88 18.7986ZM13.7 22.0249L16.12 18.7986L15.72 18.4986L13.3 21.7249L13.7 22.0249ZM16.12 18.7986C16.2606 18.6111 16.4708 18.4914 16.7004 18.4644L16.642 17.9678C16.2771 18.0107 15.9432 18.201 15.72 18.4986L16.12 18.7986ZM16.6858 18.4657L16.8146 18.4582L16.7854 17.959L16.6566 17.9666L16.6858 18.4657ZM16.8 18.4586H21.2V17.9586H16.8V18.4586ZM21.2 18.4586C21.8913 18.4586 22.4627 17.9361 22.5409 17.2656L22.0443 17.2076C21.9951 17.6294 21.6343 17.9586 21.2 17.9586V18.4586ZM22.5422 17.2511L22.5496 17.1231L22.0504 17.0941L22.043 17.2221L22.5422 17.2511ZM22.55 17.1086V6.10859H22.05V17.1086H22.55ZM22.55 6.10859C22.55 5.41726 22.0275 4.84591 21.357 4.7677L21.2991 5.26433C21.7208 5.31353 22.05 5.67431 22.05 6.10859H22.55ZM21.3425 4.76643L21.2145 4.75901L21.1855 5.25817L21.3136 5.2656L21.3425 4.76643Z" fill="white"/>
<path d="M11.0056 12.0614C11.0056 11.3695 10.4447 10.8086 9.75282 10.8086C9.06091 10.8086 8.5 11.3695 8.5 12.0614C8.5 12.7533 9.06091 13.3142 9.75282 13.3142C10.4447 13.3142 11.0056 12.7533 11.0056 12.0614Z" fill="#777777"/>
<path d="M15.0056 12.0614C15.0056 11.3695 14.4447 10.8086 13.7528 10.8086C13.0609 10.8086 12.5 11.3695 12.5 12.0614C12.5 12.7533 13.0609 13.3142 13.7528 13.3142C14.4447 13.3142 15.0056 12.7533 15.0056 12.0614Z" fill="#777777"/>
<path d="M19.0056 12.0614C19.0056 11.3695 18.4447 10.8086 17.7528 10.8086C17.0609 10.8086 16.5 11.3695 16.5 12.0614C16.5 12.7533 17.0609 13.3142 17.7528 13.3142C18.4447 13.3142 19.0056 12.7533 19.0056 12.0614Z" fill="#777777"/>
</svg>
