<svg width="18" height="17" viewBox="0 0 18 17" fill="none" xmlns="http://www.w3.org/2000/svg">
<path d="M-6.45331e-07 1.25217L-2.89622e-07 9.38984C-2.59424e-07 10.0807 0.560701 10.6414 1.25156 10.6414L6.31289 10.6414L11.6871 16.0156L11.6871 10.6414L16.7484 10.6414C17.4393 10.6414 18 10.0807 18 9.38984L18 1.25217C18 0.561306 17.4393 0.000605357 16.7484 0.000605387L1.25156 0.000606064C0.5607 0.000606095 -6.7553e-07 0.561307 -6.45331e-07 1.25217Z" fill="#00B9E4"/>
<path d="M5.80208 5.24185C5.80208 4.67643 5.34371 4.21807 4.7783 4.21807C4.21288 4.21807 3.75452 4.67643 3.75452 5.24185C3.75452 5.80726 4.21288 6.26562 4.7783 6.26562C5.34371 6.26562 5.80208 5.80726 5.80208 5.24185Z" fill="white"/>
<path d="M10.0899 5.24185C10.0899 4.67643 9.63156 4.21807 9.06614 4.21807C8.50072 4.21807 8.04236 4.67643 8.04236 5.24185C8.04236 5.80726 8.50072 6.26562 9.06614 6.26562C9.63156 6.26562 10.0899 5.80726 10.0899 5.24185Z" fill="white"/>
<path d="M14.3779 5.24185C14.3779 4.67643 13.9195 4.21807 13.3541 4.21807C12.7887 4.21807 12.3303 4.67643 12.3303 5.24185C12.3303 5.80726 12.7887 6.26562 13.3541 6.26562C13.9195 6.26562 14.3779 5.80726 14.3779 5.24185Z" fill="white"/>
</svg>
