<svg width="39" height="39" viewBox="0 0 39 39" fill="none" xmlns="http://www.w3.org/2000/svg">
<path d="M25.1875 8.125C27.4698 8.125 28.6109 8.125 29.4306 8.67272C29.7855 8.90984 30.0902 9.21453 30.3273 9.5694C30.875 10.3891 30.875 11.5302 30.875 13.8125V29.25C30.875 32.3141 30.875 33.8462 29.9231 34.7981C28.9712 35.75 27.4391 35.75 24.375 35.75H14.625C11.5609 35.75 10.0288 35.75 9.0769 34.7981C8.125 33.8462 8.125 32.3141 8.125 29.25V13.8125C8.125 11.5302 8.125 10.3891 8.67272 9.5694C8.90984 9.21453 9.21453 8.90984 9.5694 8.67272C10.3891 8.125 11.5302 8.125 13.8125 8.125" stroke="#4F4F4F" stroke-width="3.25"/>
<path d="M14.625 8.125C14.625 6.33007 16.0801 4.875 17.875 4.875H21.125C22.9199 4.875 24.375 6.33007 24.375 8.125C24.375 9.91993 22.9199 11.375 21.125 11.375H17.875C16.0801 11.375 14.625 9.91993 14.625 8.125Z" stroke="#4F4F4F" stroke-width="3.25"/>
<path d="M14.625 19.5L24.375 19.5" stroke="#4F4F4F" stroke-width="3.25" stroke-linecap="round"/>
<path d="M14.625 26L21.125 26" stroke="#4F4F4F" stroke-width="3.25" stroke-linecap="round"/>
</svg>
