<svg width="23" height="23" viewBox="0 0 23 23" fill="none" xmlns="http://www.w3.org/2000/svg">
<path d="M15.392 1.45043C15.9587 0.883711 16.8775 0.883711 17.4442 1.45043L21.5488 5.55496C22.1155 6.12167 22.1155 7.0405 21.5488 7.60722L6.2843 22.8717C6.20266 22.9533 6.09193 22.9992 5.97646 22.9992L0.435366 22.9992C0.194928 22.9992 1.47032e-05 22.8043 1.40918e-05 22.5639L0 17.0227C-2.93634e-07 16.9073 0.0458669 16.7965 0.127511 16.7149L15.392 1.45043Z" fill="#FF7C9C"/>
<path d="M16.4181 0.425038C16.9848 -0.141679 17.9037 -0.141679 18.4704 0.425038L22.5749 4.52957C23.1416 5.09628 23.1416 6.01511 22.5749 6.58183L19.4965 9.66022L13.3397 3.50343L16.4181 0.425038Z" fill="#FFB1C4"/>
</svg>
