<svg width="29" height="27" viewBox="0 0 29 27" fill="none" xmlns="http://www.w3.org/2000/svg">
<path d="M13.2933 11.51C14.0134 12.2301 15.1804 12.2301 15.9005 11.51L21.5104 5.90008L18.9033 3.29688L13.2933 8.90287C12.5733 9.6229 12.5733 10.79 13.2933 11.51Z" fill="white"/>
<path d="M20.264 18.4807C20.9841 19.2008 22.1512 19.2008 22.8712 18.4807L28.4772 12.8747L25.87 10.2676L20.264 15.8736C19.544 16.5936 19.544 17.7607 20.264 18.4807Z" fill="white"/>
<path d="M16.7786 14.9945C17.4986 15.7145 18.6657 15.7145 19.3857 14.9945L24.9957 9.38451L22.3885 6.77734L16.7786 12.3873C16.0585 13.1073 16.0585 14.2744 16.7786 14.9945Z" fill="white"/>
<path d="M13.2495 5.0295C13.9695 5.74953 15.1366 5.74953 15.8567 5.0295L17.7477 3.13841L15.1406 0.53125L13.2495 2.42233C12.5295 3.14237 12.5295 4.30946 13.2495 5.0295Z" fill="white"/>
<path d="M17.8071 25.3734C19.8486 23.2884 19.7061 19.8979 17.6449 17.8367L8.67217 8.86398C8.66821 8.86003 8.66821 8.85212 8.67217 8.8442L9.64145 7.87492C9.64541 7.87097 9.65332 7.87097 9.66123 7.87492L9.95399 8.16769C10.6384 8.85212 11.7541 8.96685 12.4979 8.34572C13.3405 7.64151 13.3841 6.38342 12.6245 5.62382L10.401 3.40042C9.67705 2.67642 8.50205 2.67642 7.77806 3.40042L7.54464 3.63383L6.48437 4.69411L5.49531 5.68317L3.24025 7.93822L1.7804 9.39808C-0.280803 11.4593 -0.280803 14.8063 1.7804 16.8675L7.19254 22.2796C7.19649 22.2836 7.19649 22.2915 7.19254 22.2994L2.58747 26.9044C2.57956 26.9124 2.58352 26.9282 2.59538 26.9282H13.5027C15.0417 27.0864 16.6361 26.5682 17.8071 25.3734Z" fill="white"/>
</svg>
