<svg width="15" height="15" viewBox="0 0 15 15" fill="none" xmlns="http://www.w3.org/2000/svg">
<circle cx="7.5" cy="7.5" r="7.5" fill="#F4F4F4"/>
<path d="M7.78809 8.99805H6.87988C6.88314 8.68555 6.91081 8.43001 6.96289 8.23145C7.01823 8.02962 7.10775 7.8457 7.23145 7.67969C7.35514 7.51367 7.51953 7.32487 7.72461 7.11328C7.87435 6.96029 8.01107 6.81706 8.13477 6.68359C8.26172 6.54688 8.36426 6.40039 8.44238 6.24414C8.52051 6.08464 8.55957 5.89421 8.55957 5.67285C8.55957 5.44824 8.51888 5.25456 8.4375 5.0918C8.35938 4.92904 8.24219 4.80371 8.08594 4.71582C7.93294 4.62793 7.74251 4.58398 7.51465 4.58398C7.32585 4.58398 7.14681 4.61816 6.97754 4.68652C6.80827 4.75488 6.67155 4.86068 6.56738 5.00391C6.46322 5.14388 6.40951 5.3278 6.40625 5.55566H5.50293C5.50944 5.18783 5.60059 4.87207 5.77637 4.6084C5.9554 4.34473 6.19629 4.1429 6.49902 4.00293C6.80176 3.86296 7.1403 3.79297 7.51465 3.79297C7.92806 3.79297 8.27962 3.86784 8.56934 4.01758C8.8623 4.16732 9.08529 4.38216 9.23828 4.66211C9.39128 4.9388 9.46777 5.26758 9.46777 5.64844C9.46777 5.94141 9.40755 6.21159 9.28711 6.45898C9.16992 6.70312 9.01855 6.93262 8.83301 7.14746C8.64746 7.3623 8.45052 7.56738 8.24219 7.7627C8.06315 7.92871 7.94271 8.11589 7.88086 8.32422C7.81901 8.53255 7.78809 8.75716 7.78809 8.99805ZM6.84082 10.5459C6.84082 10.3994 6.88639 10.2757 6.97754 10.1748C7.06868 10.0739 7.20052 10.0234 7.37305 10.0234C7.54883 10.0234 7.68229 10.0739 7.77344 10.1748C7.86458 10.2757 7.91016 10.3994 7.91016 10.5459C7.91016 10.6859 7.86458 10.8063 7.77344 10.9072C7.68229 11.0081 7.54883 11.0586 7.37305 11.0586C7.20052 11.0586 7.06868 11.0081 6.97754 10.9072C6.88639 10.8063 6.84082 10.6859 6.84082 10.5459Z" fill="#00B9E4"/>
</svg>
