<svg width="43" height="43" viewBox="0 0 43 43" fill="none" xmlns="http://www.w3.org/2000/svg">
<path d="M8.9209 22.7655C8.9209 20.343 8.9209 19.1318 9.41059 18.0671C9.90027 17.0024 10.8199 16.2142 12.6592 14.6376L14.4434 13.1083C17.7679 10.2588 19.4301 8.83398 21.4102 8.83398C23.3902 8.83398 25.0524 10.2588 28.3769 13.1083L30.1611 14.6376C32.0004 16.2142 32.92 17.0024 33.4097 18.0671C33.8994 19.1318 33.8994 20.343 33.8994 22.7655V30.3311C33.8994 33.6954 33.8994 35.3776 32.8543 36.4227C31.8091 37.4679 30.127 37.4679 26.7627 37.4679H16.0576C12.6933 37.4679 11.0112 37.4679 9.96605 36.4227C8.9209 35.3776 8.9209 33.6954 8.9209 30.3311V22.7655Z" stroke="#777777" stroke-width="2.57"/>
<path d="M25.8701 37.4678V28.5469C25.8701 27.5615 25.0713 26.7627 24.0859 26.7627H18.7334C17.748 26.7627 16.9492 27.5615 16.9492 28.5469V37.4678" stroke="#777777" stroke-width="2.57" stroke-linecap="round" stroke-linejoin="round"/>
</svg>
