<svg width="21" height="27" viewBox="0 0 21 27" fill="none" xmlns="http://www.w3.org/2000/svg">
<path d="M3.07568 7.28373C3.75751 8.29351 4.21794 9.34306 4.54077 10.5422C6.89495 7.38402 8.08396 3.91982 8.16775 0C11.8591 2.18123 14.0863 5.29097 14.9728 9.3837C15.4623 8.75345 15.7419 8.07479 15.8407 7.34512C15.9377 6.63706 15.9483 5.91776 16.0039 5.10856C16.4925 5.77252 16.9741 6.36905 17.3913 7.00535C18.8159 9.17707 19.7852 11.5321 20.0119 14.1127C20.4618 19.2351 18.5821 23.2855 14.059 26.0477C13.4918 26.3943 12.8867 26.6831 12.249 26.9857C14.7575 22.1771 14.1189 17.8449 10.2908 13.9701C11.1041 16.3173 10.5493 18.4752 9.37792 20.6244C9.09126 19.2282 8.92014 17.8527 7.99134 16.6778C7.93842 17.2631 7.95253 17.7974 7.83169 18.3023C7.63676 19.1167 7.42154 19.9388 7.09342 20.7083C6.23871 22.714 6.44158 24.6428 7.38537 26.5482C7.41889 26.6157 7.45329 26.684 7.48681 26.7514C7.51592 26.8093 7.54503 26.8672 7.61206 27.0013C7.15075 26.8275 6.74677 26.6874 6.35249 26.524C3.13566 25.1892 1.03197 22.9051 0.238128 19.5489C-0.291983 17.3081 0.0943543 15.1597 1.08578 13.1003C1.63441 11.9609 2.24303 10.8448 2.54733 9.60934C2.73168 8.85546 2.89133 8.0964 3.07568 7.28373Z" fill="#E44400"/>
</svg>
