<svg width="21" height="24" viewBox="0 0 21 24" fill="none" xmlns="http://www.w3.org/2000/svg">
<path d="M0 1.5C0 0.671573 0.671573 0 1.5 0H19.5C20.3284 0 21 0.671573 21 1.5V22.5C21 23.3284 20.3284 24 19.5 24H1.5C0.671573 24 0 23.3284 0 22.5V1.5Z" fill="#A38EFF"/>
<path d="M0 1.5C0 0.671573 0.671573 0 1.5 0H3V24H1.5C0.671573 24 0 23.3284 0 22.5V1.5Z" fill="#D6CDFF"/>
<path d="M6 3.75C6 3.33579 6.33579 3 6.75 3H15.75C16.1642 3 16.5 3.33579 16.5 3.75C16.5 4.16421 16.1642 4.5 15.75 4.5H6.75C6.33579 4.5 6 4.16421 6 3.75Z" fill="white"/>
<path d="M6 6.75C6 6.33579 6.33579 6 6.75 6H12.75C13.1642 6 13.5 6.33579 13.5 6.75C13.5 7.16421 13.1642 7.5 12.75 7.5H6.75C6.33579 7.5 6 7.16421 6 6.75Z" fill="white"/>
<path d="M6.75 9C6.33579 9 6 9.33579 6 9.75C6 10.1642 6.33579 10.5 6.75 10.5H9.75C10.1642 10.5 10.5 10.1642 10.5 9.75C10.5 9.33579 10.1642 9 9.75 9H6.75Z" fill="white"/>
</svg>
