<svg width="10" height="17" viewBox="0 0 10 17" fill="none" xmlns="http://www.w3.org/2000/svg">
<path d="M4.98249 10.5647L3.65904 10.9193C2.29859 11.2838 1.61837 11.4661 1.21404 11.0966C0.809702 10.7271 0.93008 10.0333 1.17084 8.64556L2.28215 2.23998C2.4344 1.36243 2.51053 0.923653 2.71125 0.914612C2.91198 0.905572 3.02724 1.33573 3.25776 2.19604L4.40429 6.47497C4.4653 6.70264 4.4958 6.81648 4.58548 6.86825C4.67516 6.92003 4.789 6.88953 5.01667 6.82852L6.34012 6.47391C7.70056 6.10938 8.38079 5.92711 8.78512 6.29659C9.18945 6.66607 9.06907 7.35993 8.82832 8.74763L7.717 15.1532C7.56475 16.0308 7.48863 16.4695 7.2879 16.4786C7.08718 16.4876 6.97192 16.0575 6.7414 15.1972L5.59486 10.9182C5.53386 10.6906 5.50335 10.5767 5.41367 10.5249C5.32399 10.4732 5.21016 10.5037 4.98249 10.5647Z" fill="#FCC000"/>
</svg>
