<svg width="22" height="22" viewBox="0 0 22 22" fill="none" xmlns="http://www.w3.org/2000/svg">
<path d="M11.0002 6.59175L11.0002 8.71866C11.0002 8.91271 11.0002 9.00974 11.0314 9.08645C11.0744 9.19202 11.1581 9.27579 11.2637 9.31877C11.3404 9.35 11.4374 9.35 11.6315 9.35C12.7847 9.35 13.3613 9.35 13.7366 9.55179C14.2534 9.82968 14.5894 10.3555 14.6244 10.9413C14.6499 11.3666 14.4076 11.8898 13.9232 12.9363L12.6142 15.7637C11.9809 17.1315 11.6643 17.8154 11.3322 17.7423C11.0002 17.6692 11.0002 16.9155 11.0002 15.4083L11.0002 13.2813C11.0002 13.0873 11.0002 12.9903 10.9689 12.9136C10.926 12.808 10.8422 12.7242 10.7366 12.6812C10.6599 12.65 10.5629 12.65 10.3688 12.65C9.21565 12.65 8.63907 12.65 8.26376 12.4482C7.74692 12.1703 7.41093 11.6445 7.37589 11.0587C7.35044 10.6334 7.59268 10.1102 8.07716 9.06369L9.38615 6.23626C10.0194 4.86846 10.336 4.18456 10.6681 4.2577C11.0002 4.33084 11.0002 5.08448 11.0002 6.59175Z" fill="#47DDD0"/>
</svg>
