<svg width="16" height="18" viewBox="0 0 16 18" fill="none" xmlns="http://www.w3.org/2000/svg">
<path fill-rule="evenodd" clip-rule="evenodd" d="M15.2308 0H0L0.306721 1.76923H14.924L15.2308 0ZM14.7507 2.76923H0.480085L3.12055 18H12.1102L14.7507 2.76923Z" fill="#00B9E4"/>
<path d="M7.5 6.89513L7.5 8.15194C7.5 8.2666 7.5 8.32394 7.51845 8.36926C7.54385 8.43165 7.59334 8.48115 7.65573 8.50655C7.70106 8.525 7.75839 8.525 7.87306 8.525C8.55448 8.525 8.89519 8.525 9.11696 8.64424C9.42237 8.80845 9.62091 9.11915 9.64161 9.46529C9.65665 9.71663 9.51351 10.0258 9.22723 10.6442L8.45373 12.3149C8.07954 13.1232 7.89245 13.5273 7.69622 13.4841C7.49999 13.4409 7.49999 12.9955 7.49999 12.1049L7.5 10.8481C7.5 10.7334 7.5 10.6761 7.48154 10.6307C7.45614 10.5683 7.40665 10.5189 7.34426 10.4935C7.29893 10.475 7.2416 10.475 7.12693 10.475C6.44551 10.475 6.1048 10.475 5.88303 10.3558C5.57762 10.1916 5.37908 9.88085 5.35838 9.53471C5.34334 9.28337 5.48648 8.97419 5.77276 8.35582L6.54626 6.68506L6.54626 6.68506C6.92045 5.87682 7.10754 5.4727 7.30377 5.51592C7.5 5.55913 7.5 6.00446 7.5 6.89513Z" fill="white"/>
</svg>
