<svg width="23" height="23" viewBox="0 0 23 23" fill="none" xmlns="http://www.w3.org/2000/svg">
<path d="M11.2112 1.6897C11.4732 1.6897 11.7124 1.83842 11.8284 2.07334L14.6348 7.75986L20.9103 8.67173C21.1695 8.7094 21.3849 8.89099 21.4659 9.14014C21.5468 9.38929 21.4793 9.66279 21.2917 9.84565L16.7508 14.272L17.8227 20.5221C17.867 20.7803 17.7609 21.0412 17.5489 21.1952C17.337 21.3492 17.056 21.3695 16.8241 21.2476L11.2112 18.2967L5.59829 21.2476C5.36641 21.3695 5.08542 21.3492 4.87348 21.1952C4.66155 21.0412 4.5554 20.7803 4.59969 20.5221L5.67166 14.272L1.13071 9.84565C0.943116 9.66279 0.875602 9.38929 0.956556 9.14014C1.03751 8.89099 1.25289 8.7094 1.51214 8.67173L7.78758 7.75986L10.594 2.07334C10.71 1.83842 10.9492 1.6897 11.2112 1.6897Z" stroke="#777777" stroke-width="1.78" stroke-linecap="round" stroke-linejoin="round"/>
</svg>
