<svg width="43" height="43" viewBox="0 0 43 43" fill="none" xmlns="http://www.w3.org/2000/svg">
<path d="M18.0982 11.8246C19.5017 8.3258 20.2034 6.57642 21.4101 6.57642C22.6168 6.57642 23.3185 8.3258 24.7219 11.8246L24.7873 11.9875C25.5802 13.9641 25.9766 14.9525 26.7846 15.5532C27.5925 16.1539 28.6532 16.2489 30.7744 16.4388L31.1579 16.4732C34.6296 16.7841 36.3654 16.9396 36.7368 18.0439C37.1083 19.1483 35.8192 20.3211 33.2409 22.6668L32.3805 23.4496C31.0753 24.637 30.4228 25.2307 30.1186 26.0089C30.0619 26.154 30.0147 26.3027 29.9774 26.454C29.7775 27.2652 29.9686 28.1265 30.3508 29.8491L30.4697 30.3853C31.1721 33.551 31.5233 35.1339 30.9101 35.8166C30.681 36.0717 30.3832 36.2554 30.0524 36.3457C29.1671 36.5873 27.9101 35.5631 25.3963 33.5147C23.7456 32.1696 22.9203 31.4971 21.9727 31.3458C21.6 31.2863 21.2202 31.2863 20.8475 31.3458C19.8999 31.4971 19.0745 32.1696 17.4239 33.5147C14.91 35.5631 13.6531 36.5873 12.7678 36.3457C12.437 36.2554 12.1392 36.0717 11.9101 35.8166C11.2969 35.1339 11.6481 33.551 12.3505 30.3853L12.4694 29.8491C12.8516 28.1265 13.0427 27.2652 12.8428 26.454C12.8055 26.3027 12.7583 26.154 12.7016 26.0089C12.3974 25.2307 11.7449 24.637 10.4397 23.4496L9.57925 22.6668C7.00103 20.3211 5.71192 19.1483 6.08335 18.0439C6.45478 16.9396 8.19062 16.7841 11.6623 16.4732L12.0458 16.4388C14.167 16.2489 15.2276 16.1539 16.0356 15.5532C16.8436 14.9525 17.24 13.9641 18.0329 11.9875L18.0982 11.8246Z" stroke="#4F4F4F" stroke-width="3.56836"/>
</svg>
