<svg width="43" height="43" viewBox="0 0 43 43" fill="none" xmlns="http://www.w3.org/2000/svg">
<path d="M18.0987 11.8253C19.5022 8.32654 20.2039 6.57715 21.4106 6.57715C22.6173 6.57715 23.319 8.32654 24.7224 11.8253L24.7878 11.9882C25.5807 13.9649 25.9771 14.9532 26.7851 15.5539C27.593 16.1546 28.6537 16.2496 30.7749 16.4396L31.1584 16.4739C34.6301 16.7848 36.3659 16.9403 36.7373 18.0447C37.1088 19.149 35.8196 20.3219 33.2414 22.6675L32.381 23.4504C31.0758 24.6378 30.4232 25.2315 30.1191 26.0096C30.0624 26.1547 30.0152 26.3035 29.9779 26.4548C29.778 27.266 29.9691 28.1273 30.3512 29.8498L30.4702 30.386C31.1726 33.5517 31.5238 35.1346 30.9106 35.8173C30.6815 36.0725 30.3837 36.2562 30.0529 36.3464C29.1675 36.588 27.9106 35.5638 25.3968 33.5154C23.7461 32.1703 22.9208 31.4978 21.9732 31.3465C21.6005 31.287 21.2207 31.287 20.848 31.3465C19.9004 31.4978 19.075 32.1703 17.4244 33.5154C14.9105 35.5638 13.6536 36.588 12.7683 36.3464C12.4375 36.2562 12.1397 36.0725 11.9106 35.8173C11.2974 35.1346 11.6486 33.5517 12.351 30.386L12.4699 29.8498C12.8521 28.1273 13.0432 27.266 12.8433 26.4548C12.806 26.3035 12.7588 26.1547 12.7021 26.0096C12.3979 25.2315 11.7453 24.6378 10.4402 23.4504L9.57973 22.6675C7.00152 20.3219 5.71241 19.149 6.08384 18.0447C6.45526 16.9403 8.1911 16.7848 11.6628 16.4739L12.0463 16.4396C14.1675 16.2496 15.2281 16.1546 16.0361 15.5539C16.8441 14.9532 17.2405 13.9649 18.0334 11.9882L18.0987 11.8253Z" stroke="#777777" stroke-width="2.57"/>
</svg>
