<svg width="8" height="10" viewBox="0 0 8 10" fill="none" xmlns="http://www.w3.org/2000/svg">
<path fill-rule="evenodd" clip-rule="evenodd" d="M8.00007 0H0L0.161191 0.929783H7.83888L8.00007 0ZM7.74782 1.45504H0.252252L1.63909 9.45463H6.36098L7.74782 1.45504Z" fill="white"/>
<path d="M3.93916 3.62192L3.93916 4.28207C3.93916 4.3423 3.93916 4.37242 3.94885 4.39622C3.96219 4.42899 3.98819 4.45499 4.02096 4.46833C4.04476 4.47803 4.07488 4.47803 4.13511 4.47803C4.49303 4.47803 4.67199 4.47803 4.78848 4.54066C4.94889 4.62691 5.05318 4.79011 5.06406 4.97192C5.07195 5.10394 4.99677 5.26634 4.8464 5.59114L4.44011 6.46872C4.24357 6.89325 4.14529 7.10552 4.04222 7.08282C3.93915 7.06012 3.93915 6.82621 3.93915 6.35838L3.93916 5.69823C3.93916 5.638 3.93916 5.60789 3.92946 5.58408C3.91612 5.55131 3.89012 5.52531 3.85735 5.51197C3.83355 5.50228 3.80343 5.50228 3.7432 5.50228C3.38528 5.50228 3.20632 5.50228 3.08983 5.43965C2.92942 5.35339 2.82513 5.1902 2.81425 5.00838C2.80636 4.87636 2.88154 4.71396 3.03191 4.38916L3.4382 3.51159C3.63474 3.08705 3.73302 2.87478 3.83609 2.89748C3.93916 2.92018 3.93916 3.1541 3.93916 3.62192Z" fill="#00B9E4"/>
</svg>
